<?xml version="1.0" encoding="UTF-8" standalone="no"?>
<svg
   viewBox="-0.003 -293.41895 1172.1641 985.3131"
   fill-rule="evenodd"
   clip-rule="evenodd"
   stroke-linejoin="round"
   stroke-miterlimit="2"
   width="1657.9266"
   height="1670.5704"
   version="1.1"
   id="svg2"
   sodipodi:docname="whatsapp-3.svg"
   inkscape:version="1.3.2 (1:1.3.2+202404261509+091e20ef0f)"
   xmlns:inkscape="http://www.inkscape.org/namespaces/inkscape"
   xmlns:sodipodi="http://sodipodi.sourceforge.net/DTD/sodipodi-0.dtd"
   xmlns="http://www.w3.org/2000/svg"
   xmlns:svg="http://www.w3.org/2000/svg">
  <defs
     id="defs2" />
  <sodipodi:namedview
     id="namedview2"
     pagecolor="#505050"
     bordercolor="#eeeeee"
     borderopacity="1"
     inkscape:showpageshadow="0"
     inkscape:pageopacity="0"
     inkscape:pagecheckerboard="0"
     inkscape:deskcolor="#d1d1d1"
     inkscape:zoom="0.1816"
     inkscape:cx="828.74449"
     inkscape:cy="693.8326"
     inkscape:window-width="1366"
     inkscape:window-height="699"
     inkscape:window-x="0"
     inkscape:window-y="0"
     inkscape:window-maximized="1"
     inkscape:current-layer="svg2" />
  <path
     d="m 308.678,630.1823 19.153,9.576 a 499.739,499.739 0 0 0 258.244,70.227 c 279.729,-0.638 509.563,-231.016 509.563,-510.744 0,-135.187006 -53.692,-265.012003 -149.169,-360.713 -95.35,-96.69 -225.62,-151.18 -361.383,-151.18 -278.451,0 -507.552,229.132997 -507.552,507.552 0,2.203 0,4.373 0.032,6.576 a 523.81,523.81 0 0 0 76.612,268.14 l 12.768,19.153 -51.074,188.337 192.806,-46.925 z"
     fill="#00e676"
     fill-rule="nonzero"
     id="path1" />
  <path
     d="m 1003.29,-218.9297 c -108.693,-110.896 -257.8,-173.11 -413.065,-172.378 h -0.99 c -319.756,0.001 -582.885,263.131 -582.885,582.888 0,1.5 0.032,2.969 0.032,4.47 a 616.759,616.759 0 0 0 76.612,290.485 l -82.997,303.254 309.32,-79.804 a 569.202,569.202 0 0 0 278.993,70.228 c 320.939,-1.756 584.036,-266.385 583.844,-587.356 0.766,-154.213005 -60.044,-302.52 -168.864,-411.787 m -413.065,900.186 a 473.935,473.935 0 0 1 -245.476,-67.035 l -19.153,-9.577 -184.187,47.883 47.882,-181.953 -12.768,-19.153 a 484.242,484.242 0 0 1 -72.558,-254.957 c 0,-265.650003 218.599,-484.25 484.25,-484.25 265.65,0 484.248,218.599997 484.248,484.25 0,167.269 -86.666,323.11 -228.781,411.372 a 464.838,464.838 0 0 1 -251.86,73.42 m 280.59,-354.329 -35.114,-15.96 c 0,0 -51.075,-22.346 -82.996,-38.306 -3.192,0 -6.384,-3.192 -9.577,-3.192 a 46.308,46.308 0 0 0 -22.345,6.384 c -6.799,3.99 -3.192,3.192 -47.882,54.266 -3.032,5.97 -9.257,9.705 -15.96,9.577 h -3.193 a 24.328,24.328 0 0 1 -12.768,-6.384 l -15.961,-6.385 a 309.91,309.91 0 0 1 -92.573,-60.65 c -6.384,-6.385 -15.96,-12.77 -22.345,-19.154 a 357.13,357.13 0 0 1 -60.65,-76.611 l -3.193,-6.384 a 46.475,46.475 0 0 1 -6.384,-12.769 23.915,23.915 0 0 1 3.192,-15.96001 c 2.905,-4.789 12.769,-15.962 22.345,-25.538 9.577,-9.576 9.577,-15.959996 15.961,-22.344996 a 39.33,39.33 0 0 0 6.384,-31.921999 1246.398,1246.398 0 0 0 -51.074,-121.300998 37.099,37.099 0 0 0 -22.345,-15.961 H 380.82 c -6.384,0 -12.768,3.192 -19.153,3.192 l -3.192,3.192 c -6.384,3.192 -12.768,9.577 -19.153,12.769 -6.384,3.192 -9.576,12.768997 -15.96,19.152997 a 162.752,162.752 0 0 0 -35.114,98.956001 189.029,189.029 0 0 0 15.96,73.419995 l 3.193,9.576 a 532.111,532.111 0 0 0 118.11,162.80001 l 12.768,12.769 a 193.037,193.037 0 0 1 25.537,25.537 c 66.141,57.554 144.7,99.052 229.516,121.302 9.576,3.192 22.345,3.192 31.921,6.384 h 31.922 a 118.126,118.126 0 0 0 47.882,-12.769 c 7.82,-3.543 15.29,-7.82 22.345,-12.768 l 6.384,-6.385 c 6.385,-6.384 12.769,-9.576 19.153,-15.96 a 84.393,84.393 0 0 0 15.961,-19.153 c 6.129,-14.301 10.438,-29.304 12.769,-44.69 v -22.345 a 40.107,40.107 0 0 0 -9.577,-6.385"
     fill="#ffffff"
     fill-rule="nonzero"
     id="path2" />
</svg>
